<?xml version="1.0" encoding="UTF-8"?>
<!DOCTYPE svg PUBLIC "-//W3C//DTD SVG 1.1//EN" "http://www.w3.org/Graphics/SVG/1.1/DTD/svg11.dtd">
<!-- Creator: CorelDRAW 2019 (64-Bit) -->
<svg xmlns="http://www.w3.org/2000/svg" xml:space="preserve" width="56.4482mm" height="10.5369mm" version="1.1" style="shape-rendering:geometricPrecision; text-rendering:geometricPrecision; image-rendering:optimizeQuality; fill-rule:evenodd; clip-rule:evenodd"
viewBox="0 0 5644.82 1053.69"
 xmlns:xlink="http://www.w3.org/1999/xlink">
 <defs>
  <style type="text/css">
   <![CDATA[
    .fil0 {fill:#ffc72c;fill-rule:nonzero}
   ]]>
  </style>
 </defs>
 <g id="Katman_x0020_1">
  <metadata id="CorelCorpID_0Corel-Layer"/>
  <path class="fil0" d="M4667.8 1044.95l-266.33 0c-67.8,-217.77 -133.88,-426.57 -202.28,-643.22 -73.23,217.4 -144.47,428.46 -215.38,643.22l-266.33 0 376.92 -1036.18 196.44 0 376.92 1036.18 0.04 0z"/>
  <path class="fil0" d="M819.34 1044.95l-295.42 0 -183.38 -385.66 -85.85 0 0 385.66 -254.69 0 0 -1036.18 410.4 0c109.65,0 195.97,32.73 259.04,98.24 63.07,65.47 94.59,143.83 94.59,235.02 0,65 -16.5,120.55 -49.47,166.61 -32.97,46.1 -72.76,80.79 -119.33,104.08l224.12 432.24 -0.01 -0.01zm-340.54 -629.43c20.38,-20.86 30.58,-45.36 30.58,-73.47 0,-28.15 -10.19,-52.65 -30.58,-73.5 -20.38,-20.86 -47.04,-31.28 -80.05,-31.28l-144.07 0 0 209.57 144.07 0c33,0 59.67,-10.43 80.05,-31.28l0 -0.04z"/>
  <polygon class="fil0" points="5644.82,1044.95 5422.15,1044.95 5090.35,523.96 5090.35,1044.95 4835.66,1044.95 4835.66,8.77 5058.32,8.77 5390.13,529.79 5390.13,8.77 5644.82,8.77 "/>
  <path class="fil0" d="M3591.8 727.72c0,101.85 -38.07,181.66 -114.23,239.37 -76.17,57.74 -171.5,86.6 -285.98,86.6 -85.38,0 -159.83,-9.92 -223.37,-29.83 -63.55,-19.91 -120.07,-55.55 -169.55,-106.98l163 -163c48.49,48.49 125.64,72.76 231.41,72.76 98.98,0 148.45,-31.05 148.45,-93.14 0,-26.19 -6.78,-46.57 -20.38,-61.12 -14.55,-14.55 -37.36,-23.76 -68.41,-27.64l-125.14 -17.48c-92.16,-13.57 -161.55,-44.14 -208.12,-91.69 -47.55,-48.49 -71.31,-117.88 -71.31,-208.12 0,-96.04 34.19,-174.64 102.59,-235.76 68.41,-61.12 160.33,-91.69 275.78,-91.69 150.38,0 266.81,41.24 349.29,123.68l-160.06 160.06c-25.24,-25.21 -52.65,-41.71 -82.24,-49.47 -29.6,-7.76 -67.66,-11.64 -114.23,-11.64 -40.77,0 -71.78,9.69 -93.14,29.09 -21.33,19.4 -32.03,41.71 -32.03,66.95 0,18.43 6.78,34.42 20.38,48.02 16.5,16.5 40.26,26.66 71.31,30.54l125.17 17.48c91.19,12.62 159.12,41.24 203.73,85.85 51.43,50.45 77.15,126.11 77.15,227.02l-0.07 0.14z"/>
  <polygon class="fil0" points="2728.26,8.77 2415.39,622.9 2415.39,1044.95 2160.7,1044.95 2160.7,622.9 1847.79,8.77 2125.77,8.77 2288.77,381.34 2450.32,8.77 "/>
  <path class="fil0" d="M1857.48 1044.95l-266.33 0c-66.58,-213.89 -133.94,-426.87 -202.28,-643.22 -72.56,215.41 -144.17,427.58 -215.38,643.22l-266.3 0 376.92 -1036.18 196.44 0 376.92 1036.18 0.01 0z"/>
 </g>
</svg>
